<svg width="24" height="24" viewBox="0 0 24 24" fill="none" xmlns="http://www.w3.org/2000/svg">
<mask id="mask0_558_3407" style="mask-type:alpha" maskUnits="userSpaceOnUse" x="0" y="0" width="24" height="24">
<rect width="24" height="24" fill="#D9D9D9"/>
</mask>
<g mask="url(#mask0_558_3407)">
<path d="M8.02899 9.23466L11.2251 3.99626C11.3187 3.84241 11.4333 3.73279 11.5688 3.66741C11.7044 3.60203 11.8475 3.56934 11.9982 3.56934C12.1488 3.56934 12.2919 3.60203 12.4275 3.66741C12.5631 3.73279 12.6776 3.84241 12.7712 3.99626L15.9673 9.23466C16.0609 9.38529 16.1077 9.54347 16.1077 9.70919C16.1077 9.87489 16.0693 10.0263 15.9923 10.1635C15.9154 10.3007 15.8097 10.4103 15.675 10.4923C15.5404 10.5744 15.3834 10.6154 15.2039 10.6154H8.79244C8.61222 10.6154 8.45453 10.574 8.31936 10.4911C8.1842 10.4083 8.07907 10.2991 8.00399 10.1635C7.92705 10.0284 7.88859 9.87827 7.88859 9.71314C7.88859 9.548 7.93539 9.38851 8.02899 9.23466ZM17.4982 21.6154C16.3507 21.6154 15.378 21.2164 14.5799 20.4183C13.7818 19.6202 13.3828 18.6475 13.3828 17.5001C13.3828 16.3526 13.7818 15.3799 14.5799 14.5818C15.378 13.7837 16.3507 13.3847 17.4982 13.3847C18.6456 13.3847 19.6183 13.7837 20.4164 14.5818C21.2145 15.3799 21.6135 16.3526 21.6135 17.5001C21.6135 18.6475 21.2145 19.6202 20.4164 20.4183C19.6183 21.2164 18.6456 21.6154 17.4982 21.6154ZM3.38281 20.2113V14.7863C3.38281 14.5301 3.46946 14.3158 3.64276 14.1434C3.81605 13.9709 4.03078 13.8847 4.28696 13.8847H9.71194C9.96812 13.8847 10.1824 13.9714 10.3549 14.1447C10.5273 14.3179 10.6135 14.5327 10.6135 14.7889V20.2138C10.6135 20.47 10.5269 20.6843 10.3536 20.8568C10.1803 21.0292 9.96555 21.1154 9.70936 21.1154H4.28439C4.0282 21.1154 3.8139 21.0288 3.64146 20.8555C3.46903 20.6822 3.38281 20.4674 3.38281 20.2113ZM17.4979 20.1155C18.2301 20.1155 18.8491 19.8627 19.3549 19.3571C19.8607 18.8515 20.1136 18.2326 20.1136 17.5003C20.1136 16.7681 19.8608 16.1491 19.3552 15.6433C18.8496 15.1376 18.2307 14.8847 17.4984 14.8847C16.7662 14.8847 16.1472 15.1375 15.6414 15.6431C15.1357 16.1486 14.8828 16.7676 14.8828 17.4998C14.8828 18.232 15.1356 18.851 15.6412 19.3568C16.1467 19.8626 16.7657 20.1155 17.4979 20.1155ZM4.88276 19.6155H9.11356V15.3847H4.88276V19.6155ZM9.83661 9.11546H14.1597L11.9982 5.63851L9.83661 9.11546Z" fill="#252A31"/>
</g>
</svg>
