<svg width="88" height="88" viewBox="0 0 88 88" fill="none" xmlns="http://www.w3.org/2000/svg">
<path d="M44.4156 21.3127C48.6781 21.3127 52.2531 17.8752 52.2531 13.4752C52.2531 9.2127 48.8156 5.6377 44.4156 5.6377C40.0156 5.6377 36.5781 9.0752 36.5781 13.4752C36.5781 17.8752 40.1531 21.3127 44.4156 21.3127ZM44.4156 8.5252C47.1656 8.5252 49.5031 10.7252 49.5031 13.6127C49.5031 16.3627 47.3031 18.7002 44.4156 18.7002C41.5281 18.7002 39.3281 16.5002 39.3281 13.6127C39.3281 10.7252 41.6656 8.5252 44.4156 8.5252Z" fill="#101010"/>
<path d="M20.3531 53.9003C16.0906 53.9003 12.5156 57.3378 12.5156 61.7378C12.5156 66.0003 15.9531 69.5753 20.3531 69.5753C24.7531 69.5753 28.1906 66.1378 28.1906 61.7378C28.0531 57.4753 24.6156 53.9003 20.3531 53.9003ZM20.3531 66.8253C17.6031 66.8253 15.2656 64.6253 15.2656 61.7378C15.2656 58.9878 17.4656 56.6503 20.3531 56.6503C23.2406 56.6503 25.4406 58.8503 25.4406 61.7378C25.3031 64.4878 23.1031 66.8253 20.3531 66.8253Z" fill="#101010"/>
<path d="M68.0625 48.2625C62.15 48.2625 56.7875 50.875 53.075 55.1375L45.375 47.3V39.7375C55.825 39.05 63.9375 30.25 63.9375 19.9375C63.9375 8.9375 55 0 44 0C33 0 24.0625 8.9375 24.0625 19.9375C24.0625 30.3875 32.0375 39.05 42.625 39.7375V47.3L34.925 55C31.2125 50.875 25.9875 48.125 19.9375 48.125C8.9375 48.2625 0 57.2 0 68.0625C0 79.0625 8.9375 88 19.9375 88C30.9375 88 39.875 79.0625 39.875 68.0625C39.875 64.075 38.6375 60.3625 36.575 57.2L44 49.775L51.425 57.2C49.3625 60.3625 48.125 64.075 48.125 68.0625C48.125 79.0625 57.0625 88 68.0625 88C79.0625 88 88 79.0625 88 68.0625C88 57.2 79.0625 48.2625 68.0625 48.2625ZM9.4875 81.675C10.5875 76.8625 14.85 73.15 19.9375 73.15C25.025 73.15 29.425 76.725 30.3875 81.675C27.3625 84.0125 23.7875 85.25 19.9375 85.25C16.0875 85.25 12.375 84.0125 9.4875 81.675ZM32.5875 79.6125C30.8 74.25 25.7125 70.5375 19.8 70.5375C14.025 70.5375 8.9375 74.25 7.0125 79.6125C4.4 76.45 2.75 72.325 2.75 68.0625C2.75 58.575 10.45 50.875 19.9375 50.875C29.425 50.875 37.125 58.575 37.125 68.0625C37.125 72.325 35.475 76.45 32.5875 79.6125ZM44 36.9875C40.15 36.9875 36.575 35.75 33.55 33.4125C34.65 28.6 38.9125 24.8875 44 24.8875C49.0875 24.8875 53.4875 28.4625 54.45 33.4125C51.425 35.75 47.85 36.9875 44 36.9875ZM26.8125 19.9375C26.8125 10.45 34.5125 2.75 44 2.75C53.4875 2.75 61.1875 10.45 61.1875 19.9375C61.1875 24.2 59.5375 28.325 56.7875 31.35C55 25.9875 49.9125 22.275 44 22.275C38.225 22.275 33.1375 25.9875 31.2125 31.35C28.4625 28.1875 26.8125 24.2 26.8125 19.9375ZM57.6125 81.675C58.7125 76.8625 62.975 73.15 68.0625 73.15C73.15 73.15 77.55 76.725 78.5125 81.675C75.625 84.0125 71.9125 85.25 68.0625 85.25C64.35 85.25 60.6375 84.0125 57.6125 81.675ZM80.85 79.6125C79.0625 74.25 73.975 70.5375 68.0625 70.5375C62.2875 70.5375 57.2 74.25 55.275 79.6125C52.3875 76.45 50.875 72.4625 50.875 68.2C50.875 58.7125 58.575 51.0125 68.0625 51.0125C77.55 51.0125 85.25 58.7125 85.25 68.2C85.25 72.325 83.6 76.45 80.85 79.6125Z" fill="#101010"/>
<path d="M68.4781 53.9003C64.2156 53.9003 60.6406 57.3378 60.6406 61.7378C60.6406 66.0003 64.0781 69.5753 68.4781 69.5753C72.7406 69.5753 76.3156 66.1378 76.3156 61.7378C76.3156 57.4753 72.7406 53.9003 68.4781 53.9003ZM68.4781 66.8253C65.7281 66.8253 63.3906 64.6253 63.3906 61.7378C63.3906 58.9878 65.5906 56.6503 68.4781 56.6503C71.2281 56.6503 73.5656 58.8503 73.5656 61.7378C73.5656 64.4878 71.2281 66.8253 68.4781 66.8253Z" fill="#101010"/>
</svg>
