<svg width="98" height="85" viewBox="0 0 98 85" fill="none" xmlns="http://www.w3.org/2000/svg">
<path d="M76.1935 37.9234L82.7653 30.6859C82.9621 30.4695 83.0848 30.1969 83.1157 29.9071C83.1466 29.6173 83.0841 29.3252 82.9372 29.0728L76.6863 18.3402C76.5385 18.0873 76.3137 17.8873 76.0442 17.7689C75.7746 17.6506 75.4742 17.6198 75.1859 17.6812L65.5775 19.7062L56.1781 3.55299C55.2235 1.92179 53.656 0.731787 51.8186 0.243361C49.9811 -0.245065 48.0233 0.00785331 46.3735 0.946776C44.7914 1.85589 43.6187 3.32889 43.0943 5.06549C42.57 6.80209 42.7335 8.67154 43.5516 10.2928L17.9212 41.47L6.7385 47.8654C3.64504 49.6458 1.38841 52.5677 0.461901 55.9924C-0.464613 59.4172 0.0143471 63.0663 1.79408 66.1421L3.72615 69.4542C5.33864 72.2287 7.90343 74.3364 10.9528 75.3927C14.0022 76.4491 17.333 76.3839 20.338 75.2089L34.6657 84.7654C34.8819 84.9093 35.1345 84.9903 35.3948 84.9992C35.6551 85.0081 35.9127 84.9445 36.1384 84.8157L43.9971 80.3206C44.2016 80.2034 44.3727 80.0365 44.4943 79.8356C44.6158 79.6348 44.6839 79.4065 44.6919 79.1724C44.7 78.9383 44.6479 78.7061 44.5405 78.4974C44.4331 78.2888 44.2739 78.1107 44.0779 77.9799L31.0301 69.2711L33.3465 67.9451L73.4016 61.5269C74.4329 63.0586 76.0237 64.1337 77.8388 64.5259C79.6539 64.9181 81.5518 64.5967 83.1326 63.6294C84.7134 62.662 85.8538 61.1243 86.3136 59.3401C86.7734 57.5559 86.5167 55.6644 85.5976 54.064L76.1935 37.9234ZM74.7808 20.5826L80.0207 29.5796L74.73 35.4064L67.0479 22.2129L74.7808 20.5826ZM12.6432 73.0077C11.283 72.6526 10.0073 72.0337 8.88995 71.1867C7.77262 70.3397 6.83581 69.2815 6.13372 68.0733L4.20858 64.7623C2.79763 62.3206 2.41836 59.4248 3.15355 56.7069C3.88874 53.989 5.6787 51.6698 8.13273 50.2554L17.411 44.9457L30.0502 66.6501L20.7719 71.9609C19.5542 72.6596 18.2087 73.1119 16.8134 73.2915C15.418 73.4712 14.0006 73.3748 12.6432 73.0077ZM35.4955 81.9944L23.1691 73.7731L28.3421 70.8122L40.6696 79.0358L35.4955 81.9944ZM32.4716 65.2909L19.8059 43.5408L45.0243 12.8681L71.8827 58.9744L32.4716 65.2909ZM81.5753 61.393C80.5662 61.9691 79.3677 62.1251 78.2427 61.8268C77.1177 61.5285 76.1579 60.8002 75.5737 59.8016L61.6742 35.935L46.1553 9.28939C45.5893 8.28981 45.4435 7.10938 45.7496 6.00397C46.0556 4.89855 46.7888 3.95723 47.7902 3.38404C48.7916 2.81086 49.9806 2.652 51.0994 2.9419C52.2182 3.2318 53.1767 3.9471 53.767 4.93274L83.1865 55.4438C83.768 56.4449 83.9253 57.6337 83.6239 58.7495C83.3225 59.8654 82.5871 60.8173 81.5788 61.3964L81.5753 61.393ZM90.5558 19.1399C90.3977 19.2461 90.2192 19.3188 90.0314 19.3536C89.8437 19.3884 89.6507 19.3846 89.4645 19.3423C89.2783 19.3 89.1029 19.2202 88.9492 19.1078C88.7955 18.9954 88.6668 18.8528 88.571 18.689C88.4753 18.5251 88.4146 18.3435 88.3927 18.1554C88.3708 17.9673 88.3883 17.7768 88.4439 17.5957C88.4995 17.4145 88.5921 17.2467 88.716 17.1025C88.8399 16.9584 88.9924 16.8411 89.1639 16.7579L93.5844 14.2272C93.9041 14.0443 94.284 13.9947 94.6406 14.0894C94.9972 14.1841 95.3013 14.4154 95.4858 14.7323C95.6704 15.0493 95.7204 15.4259 95.6249 15.7794C95.5293 16.1329 95.296 16.4342 94.9763 16.6172L90.5558 19.1399ZM77.4977 9.20702L78.8192 4.32066C78.8665 4.14563 78.9481 3.98154 79.0594 3.83777C79.1706 3.694 79.3094 3.57336 79.4677 3.48274C79.6259 3.39212 79.8007 3.3333 79.9819 3.30962C80.1632 3.28595 80.3473 3.29789 80.5239 3.34476C80.7005 3.39164 80.866 3.47253 81.011 3.58282C81.1561 3.69311 81.2778 3.83064 81.3692 3.98755C81.4606 4.14446 81.52 4.31769 81.5438 4.49734C81.5677 4.67698 81.5557 4.85954 81.5084 5.03457L80.1869 9.92093C80.0914 10.2744 79.8581 10.5758 79.5384 10.7588C79.2187 10.9419 78.8388 10.9915 78.4822 10.8968C78.1256 10.8022 77.8215 10.5709 77.6369 10.254C77.4523 9.93714 77.4022 9.56051 77.4977 9.20702ZM97.9529 33.267C97.9056 33.442 97.824 33.6061 97.7127 33.7499C97.6015 33.8937 97.4627 34.0143 97.3044 34.1049C97.1461 34.1956 96.9714 34.2544 96.7901 34.278C96.6089 34.3017 96.4247 34.2898 96.2482 34.2429L91.3176 32.9352C90.961 32.8405 90.6569 32.6093 90.4723 32.2924C90.3809 32.1355 90.3215 31.9623 90.2976 31.7826C90.2738 31.603 90.2858 31.4204 90.3331 31.2454C90.3804 31.0704 90.462 30.9063 90.5733 30.7625C90.6845 30.6187 90.8233 30.4981 90.9816 30.4075C91.3012 30.2245 91.6812 30.1748 92.0378 30.2695L96.9684 31.5783C97.3248 31.6733 97.6287 31.9045 97.8133 32.2213C97.9979 32.5382 98.0481 32.9135 97.9529 33.267Z" fill="#101010"/>
</svg>
