<svg width="88" height="88" viewBox="0 0 88 88" fill="none" xmlns="http://www.w3.org/2000/svg">
<path d="M69.9016 58.7655C69.6293 58.3537 69.1681 58.1066 68.6738 58.1066H52.9828C61.0507 47.5712 69.8046 34.1924 69.8046 25.7311C69.8046 11.5428 58.2333 0 44.0094 0C29.7755 0 18.1955 11.5428 18.1955 25.7311C18.1955 34.1924 26.9495 47.5712 35.0178 58.1066H19.3458C18.8515 58.1066 18.3909 58.3537 18.1179 58.7648L0.243637 85.7248C-0.0545197 86.1753 -0.0811024 86.7525 0.175384 87.228C0.43187 87.7035 0.929756 88 1.47147 88H86.5287C87.0704 88 87.5675 87.7035 87.824 87.228C88.0812 86.7532 88.0546 86.176 87.7565 85.7255L69.9016 58.7655ZM21.1383 25.7311C21.1383 13.1606 31.3985 2.93333 44.0094 2.93333C56.6103 2.93333 66.8618 13.1606 66.8618 25.7311C66.8618 32.185 60.4576 43.8826 48.8288 58.6681C46.7912 61.257 45.0619 63.3402 44.0058 64.5913C42.9454 63.3417 41.2103 61.2584 39.1721 58.6681C27.5425 43.8826 21.1383 32.185 21.1383 25.7311ZM4.20732 85.0667L20.1368 61.04H37.2998C37.455 61.2358 37.598 61.4128 37.7491 61.6022C37.929 61.8277 38.1078 62.0524 38.2814 62.2683C38.496 62.5354 38.6987 62.7856 38.9028 63.0369C39.0665 63.2387 39.2305 63.4416 39.3869 63.6329C39.585 63.8753 39.7678 64.0972 39.9529 64.3217C40.096 64.4955 40.2412 64.6724 40.3759 64.8349C40.5501 65.0448 40.7052 65.2304 40.8643 65.4207C40.9889 65.5699 41.1174 65.7245 41.2321 65.8609C41.3822 66.0394 41.5087 66.1887 41.6409 66.3447C41.7372 66.4585 41.8406 66.5813 41.9268 66.6827C42.0558 66.8342 42.1562 66.9513 42.2614 67.074C42.325 67.1482 42.3981 67.2339 42.4525 67.2972C42.5151 67.37 42.5508 67.411 42.6009 67.4689C42.776 67.6714 42.8981 67.8113 42.903 67.8169C43.1825 68.1348 43.5855 68.3167 44.0094 68.3167H44.0123C44.4369 68.316 44.8406 68.132 45.1194 67.8126C45.1311 67.7996 45.6845 67.1628 46.5828 66.0929C46.6387 66.0264 46.6854 65.9712 46.744 65.9012C46.9179 65.6935 47.1118 65.4598 47.3089 65.2224C47.4029 65.1091 47.4889 65.0061 47.588 64.8863C47.778 64.6564 47.9827 64.4067 48.1899 64.154C48.3178 63.998 48.4403 63.8491 48.5742 63.6849C48.7786 63.4343 48.9935 63.1684 49.2108 62.8996C49.3639 62.7102 49.5133 62.5256 49.6724 62.3277C49.8979 62.0471 50.1309 61.7541 50.3673 61.4571C50.4801 61.3153 50.5852 61.1854 50.7003 61.04H67.882L83.7942 85.0667H4.20732Z" fill="#101010"/>
</svg>
