<svg width="60" height="60" viewBox="0 0 60 60" fill="none" xmlns="http://www.w3.org/2000/svg">
<mask id="mask0_511_4214" style="mask-type:alpha" maskUnits="userSpaceOnUse" x="0" y="0" width="60" height="60">
<rect width="60" height="60" fill="#D9D9D9"/>
</mask>
<g mask="url(#mask0_511_4214)">
<path d="M20.0764 23.0867L28.0666 9.99065C28.3006 9.60603 28.5871 9.33198 28.926 9.16853C29.265 9.00507 29.6227 8.92334 29.9993 8.92334C30.3759 8.92334 30.7337 9.00507 31.0726 9.16853C31.4115 9.33198 31.698 9.60603 31.932 9.99065L39.9223 23.0867C40.1563 23.4632 40.2733 23.8587 40.2733 24.273C40.2733 24.6872 40.1771 25.0658 39.9848 25.4087C39.7925 25.7517 39.528 26.0257 39.1915 26.2308C38.855 26.436 38.4623 26.5385 38.0136 26.5385H21.985C21.5345 26.5385 21.1402 26.435 20.8023 26.2278C20.4644 26.0207 20.2016 25.7477 20.0139 25.4087C19.8215 25.071 19.7254 24.6957 19.7254 24.2828C19.7254 23.87 19.8424 23.4713 20.0764 23.0867ZM43.7493 54.0385C40.8807 54.0385 38.4489 53.0409 36.4537 51.0458C34.4585 49.0506 33.4609 46.6187 33.4609 43.7502C33.4609 40.8816 34.4585 38.4497 36.4537 36.4545C38.4489 34.4594 40.8807 33.4618 43.7493 33.4618C46.6179 33.4618 49.0498 34.4594 51.0449 36.4545C53.0401 38.4497 54.0377 40.8816 54.0377 43.7502C54.0377 46.6187 53.0401 49.0506 51.0449 51.0458C49.0498 53.0409 46.6179 54.0385 43.7493 54.0385ZM8.46094 50.5282V36.9657C8.46094 36.3253 8.67756 35.7895 9.11081 35.3584C9.54402 34.9273 10.0809 34.7118 10.7213 34.7118H24.2837C24.9242 34.7118 25.46 34.9284 25.8911 35.3617C26.3221 35.7949 26.5377 36.3317 26.5377 36.9722V50.5346C26.5377 51.175 26.3211 51.7108 25.8878 52.1419C25.4546 52.573 24.9178 52.7885 24.2773 52.7885H10.7149C10.0744 52.7885 9.53865 52.5719 9.10756 52.1387C8.67648 51.7054 8.46094 51.1686 8.46094 50.5282ZM43.7486 50.2887C45.5792 50.2887 47.1267 49.6567 48.3911 48.3927C49.6556 47.1287 50.2878 45.5814 50.2878 43.7508C50.2878 41.9203 49.6558 40.3728 48.3918 39.1083C47.1279 37.8439 45.5806 37.2117 43.75 37.2117C41.9194 37.2117 40.3719 37.8437 39.1075 39.1077C37.843 40.3716 37.2108 41.9189 37.2108 43.7495C37.2108 45.58 37.8428 47.1275 39.1068 48.392C40.3708 49.6564 41.918 50.2887 43.7486 50.2887ZM12.2108 49.0387H22.7878V38.4617H12.2108V49.0387ZM24.5954 22.7887H35.4032L29.9993 14.0963L24.5954 22.7887Z" fill="#541AA6"/>
</g>
</svg>
