<svg width="60" height="60" viewBox="0 0 60 60" fill="none" xmlns="http://www.w3.org/2000/svg">
<mask id="mask0_511_4220" style="mask-type:alpha" maskUnits="userSpaceOnUse" x="0" y="0" width="60" height="60">
<rect width="60" height="60" fill="#D9D9D9"/>
</mask>
<g mask="url(#mask0_511_4220)">
<path d="M28.1249 53.6251V51.1731C22.9166 50.6379 18.532 48.5898 14.9711 45.0289C11.4102 41.468 9.36213 37.0834 8.82688 31.8751H6.37494C5.84369 31.8751 5.3984 31.6953 5.03906 31.3358C4.67969 30.9763 4.5 30.5308 4.5 29.9993C4.5 29.4678 4.67969 29.0226 5.03906 28.6636C5.39844 28.3047 5.84373 28.1252 6.37494 28.1252H8.82688C9.36213 22.9169 11.4102 18.5322 14.9711 14.9713C18.532 11.4104 22.9166 9.36237 28.1249 8.82712V6.37518C28.1249 5.84397 28.3047 5.39868 28.6642 5.03931C29.0237 4.67993 29.4692 4.50024 30.0007 4.50024C30.5322 4.50024 30.9774 4.67993 31.3364 5.03931C31.6953 5.39868 31.8748 5.84397 31.8748 6.37518V8.82712C37.0831 9.36237 41.4678 11.4104 45.0287 14.9713C48.5896 18.5322 50.6376 22.9169 51.1729 28.1252H53.6248C54.156 28.1252 54.6013 28.3049 54.9607 28.6644C55.3201 29.024 55.4998 29.4695 55.4998 30.0009C55.4998 30.5324 55.3201 30.9777 54.9607 31.3366C54.6013 31.6956 54.156 31.8751 53.6248 31.8751H51.1729C50.6376 37.0834 48.5896 41.468 45.0287 45.0289C41.4678 48.5898 37.0831 50.6379 31.8748 51.1731V53.6251C31.8748 54.1563 31.6951 54.6016 31.3356 54.9609C30.976 55.3203 30.5305 55.5 29.9991 55.5C29.4676 55.5 29.0223 55.3203 28.6634 54.9609C28.3044 54.6016 28.1249 54.1563 28.1249 53.6251ZM29.9999 47.5001C34.8332 47.5001 38.9582 45.7918 42.3749 42.3751C45.7915 38.9585 47.4999 34.8335 47.4999 30.0001C47.4999 25.1668 45.7915 21.0418 42.3749 17.6251C38.9582 14.2085 34.8332 12.5001 29.9999 12.5001C25.1665 12.5001 21.0415 14.2085 17.6249 17.6251C14.2082 21.0418 12.4999 25.1668 12.4999 30.0001C12.4999 34.8335 14.2082 38.9585 17.6249 42.3751C21.0415 45.7918 25.1665 47.5001 29.9999 47.5001ZM29.9999 38.7501C27.5937 38.7501 25.5338 37.8933 23.8203 36.1797C22.1067 34.4662 21.2499 32.4063 21.2499 30.0001C21.2499 27.5939 22.1067 25.534 23.8203 23.8205C25.5338 22.107 27.5937 21.2502 29.9999 21.2502C32.4061 21.2502 34.466 22.107 36.1795 23.8205C37.893 25.534 38.7498 27.5939 38.7498 30.0001C38.7498 32.4063 37.893 34.4662 36.1795 36.1797C34.466 37.8933 32.4061 38.7501 29.9999 38.7501ZM29.9999 35.0001C31.3749 35.0001 32.552 34.5105 33.5311 33.5314C34.5103 32.5522 34.9999 31.3751 34.9999 30.0001C34.9999 28.6251 34.5103 27.448 33.5311 26.4689C32.552 25.4897 31.3749 25.0001 29.9999 25.0001C28.6249 25.0001 27.4478 25.4897 26.4686 26.4689C25.4895 27.448 24.9999 28.6251 24.9999 30.0001C24.9999 31.3751 25.4895 32.5522 26.4686 33.5314C27.4478 34.5105 28.6249 35.0001 29.9999 35.0001Z" fill="#541AA6"/>
</g>
</svg>
