<svg width="60" height="60" viewBox="0 0 60 60" fill="none" xmlns="http://www.w3.org/2000/svg">
<mask id="mask0_511_4226" style="mask-type:alpha" maskUnits="userSpaceOnUse" x="0" y="0" width="60" height="60">
<rect width="60" height="60" fill="#D9D9D9"/>
</mask>
<g mask="url(#mask0_511_4226)">
<path d="M28.7493 33.3173C29.6243 33.3173 30.4152 33.2028 31.1219 32.9736C31.8286 32.7444 32.557 32.4007 33.307 31.9423L37.8647 36.577C38.134 36.8719 38.4729 37.0169 38.8816 37.0121C39.2902 37.0073 39.65 36.8623 39.9609 36.577C40.2718 36.2662 40.4336 35.9104 40.4464 35.5097C40.4592 35.1091 40.3102 34.7533 39.9993 34.4425L35.4031 29.8463C35.8615 29.1379 36.1972 28.428 36.4103 27.7165C36.6234 27.0049 36.73 26.2117 36.73 25.3367C36.73 23.1027 35.9456 21.2141 34.3767 19.6708C32.8078 18.1276 30.932 17.356 28.7493 17.356C26.5666 17.356 24.6909 18.1276 23.1219 19.6708C21.5531 21.2141 20.7686 23.1027 20.7686 25.3367C20.7686 27.5706 21.5531 29.4592 23.1219 31.0025C24.6909 32.5457 26.5666 33.3173 28.7493 33.3173ZM28.7493 30.3367C27.3743 30.3367 26.1972 29.8471 25.2181 28.8679C24.2389 27.8887 23.7493 26.7117 23.7493 25.3367C23.7493 23.9617 24.2389 22.7846 25.2181 21.8054C26.1972 20.8262 27.3743 20.3367 28.7493 20.3367C30.0987 20.3367 31.2694 20.8262 32.2613 21.8054C33.2533 22.7846 33.7493 23.9617 33.7493 25.3367C33.7493 26.7117 33.2597 27.8887 32.2806 28.8679C31.3014 29.8471 30.1243 30.3367 28.7493 30.3367ZM5.33588 50.5769C4.80383 50.5769 4.35833 50.3974 3.99937 50.0384C3.64042 49.6794 3.46094 49.2339 3.46094 48.7019C3.46094 48.1699 3.6404 47.7244 3.99931 47.3654C4.35827 47.0064 4.80377 46.827 5.33581 46.827H54.6627C55.1947 46.827 55.6402 47.0064 55.9992 47.3654C56.3581 47.7244 56.5376 48.1699 56.5376 48.7019C56.5376 49.2339 56.3581 49.6794 55.9992 50.0384C55.6402 50.3974 55.1947 50.5769 54.6627 50.5769H5.33588ZM10.7686 44.327C9.50579 44.327 8.43687 43.8895 7.56187 43.0145C6.68688 42.1395 6.24937 41.0706 6.24937 39.8078V13.8463C6.24937 12.5835 6.68688 11.5146 7.56187 10.6396C8.43687 9.76465 9.50579 9.32715 10.7686 9.32715H49.23C50.4928 9.32715 51.5618 9.76465 52.4368 10.6396C53.3118 11.5146 53.7493 12.5835 53.7493 13.8463V39.8078C53.7493 41.0706 53.3118 42.1395 52.4368 43.0145C51.5618 43.8895 50.4928 44.327 49.23 44.327H10.7686ZM10.7686 40.577H49.23C49.4223 40.577 49.5986 40.4969 49.7589 40.3367C49.9192 40.1764 49.9993 40.0001 49.9993 39.8078V13.8463C49.9993 13.654 49.9192 13.4777 49.7589 13.3175C49.5986 13.1572 49.4223 13.077 49.23 13.077H10.7686C10.5763 13.077 10.4 13.1572 10.2397 13.3175C10.0794 13.4777 9.99931 13.654 9.99931 13.8463V39.8078C9.99931 40.0001 10.0794 40.1764 10.2397 40.3367C10.4 40.4969 10.5763 40.577 10.7686 40.577Z" fill="#541AA6"/>
</g>
</svg>
