<svg width="61" height="36" viewBox="0 0 61 36" fill="none" xmlns="http://www.w3.org/2000/svg">
<path d="M42.1325 36C32.2072 36 24.1328 27.9256 24.1328 17.9997C24.1328 8.07443 32.2079 0 42.1325 0C52.0584 0 60.1328 8.07443 60.1328 17.9997C60.1328 27.9256 52.0584 36 42.1325 36ZM42.1325 1.99369C33.3071 1.99369 26.1265 9.17428 26.1265 17.9997C26.1265 26.8257 33.3071 34.0063 42.1325 34.0063C50.9585 34.0063 58.1391 26.8257 58.1391 17.9997C58.1391 9.17361 50.9585 1.99369 42.1325 1.99369Z" fill="#585858"/>
<path d="M21.7496 12.687H5.00466C4.45373 12.687 4.00781 12.2411 4.00781 11.6902C4.00781 11.1393 4.45373 10.6934 5.00466 10.6934H21.7496C22.3005 10.6934 22.7465 11.1393 22.7465 11.6902C22.7465 12.2411 22.2999 12.687 21.7496 12.687Z" fill="#585858"/>
<path d="M18.6637 20.3863H1.91872C1.3678 20.3863 0.921875 19.9397 0.921875 19.3894C0.921875 18.8392 1.3678 18.3926 1.91872 18.3926H18.6637C19.2146 18.3926 19.6605 18.8392 19.6605 19.3894C19.6605 19.9397 19.2146 20.3863 18.6637 20.3863Z" fill="#585858"/>
<path d="M21.7496 28.0845H5.00466C4.45373 28.0845 4.00781 27.6379 4.00781 27.0877C4.00781 26.5374 4.45373 26.0908 5.00466 26.0908H21.7496C22.3005 26.0908 22.7465 26.5374 22.7465 27.0877C22.7465 27.6379 22.2999 28.0845 21.7496 28.0845Z" fill="#585858"/>
</svg>
