<svg width="20" height="18" viewBox="0 0 20 18" fill="none" xmlns="http://www.w3.org/2000/svg">
<path d="M2 4H18V2H2V4ZM0 2C0 1.45 0.195833 0.979167 0.5875 0.5875C0.979167 0.195833 1.45 0 2 0H18C18.55 0 19.0208 0.195833 19.4125 0.5875C19.8042 0.979167 20 1.45 20 2V8H2V14H5.1C5.38333 14 5.62083 14.0958 5.8125 14.2875C6.00417 14.4792 6.1 14.7167 6.1 15C6.1 15.2833 6.00417 15.5208 5.8125 15.7125C5.62083 15.9042 5.38333 16 5.1 16H2C1.45 16 0.979167 15.8042 0.5875 15.4125C0.195833 15.0208 0 14.55 0 14V2ZM2 2V14V10.7375V12.325V2ZM12.95 15.15L17.875 10.225C18.075 10.025 18.3125 9.92917 18.5875 9.9375C18.8625 9.94583 19.1 10.05 19.3 10.25C19.4833 10.45 19.5792 10.6833 19.5875 10.95C19.5958 11.2167 19.5 11.45 19.3 11.65L13.65 17.3C13.45 17.5 13.2167 17.6 12.95 17.6C12.6833 17.6 12.45 17.5 12.25 17.3L9.4 14.45C9.21667 14.2667 9.12083 14.0375 9.1125 13.7625C9.10417 13.4875 9.2 13.25 9.4 13.05C9.58333 12.8667 9.8125 12.775 10.0875 12.775C10.3625 12.775 10.6 12.8667 10.8 13.05L12.95 15.15Z" fill="#101010"/>
</svg>
