<svg width="47" height="47" viewBox="0 0 47 47" fill="none" xmlns="http://www.w3.org/2000/svg">
<path d="M12.0764 15.0867L20.0666 1.99065C20.3006 1.60603 20.5871 1.33198 20.926 1.16853C21.265 1.00507 21.6227 0.92334 21.9993 0.92334C22.3759 0.92334 22.7337 1.00507 23.0726 1.16853C23.4115 1.33198 23.698 1.60603 23.932 1.99065L31.9223 15.0867C32.1563 15.4632 32.2733 15.8587 32.2733 16.273C32.2733 16.6872 32.1771 17.0658 31.9848 17.4087C31.7925 17.7517 31.528 18.0257 31.1915 18.2308C30.855 18.436 30.4623 18.5385 30.0136 18.5385H13.985C13.5345 18.5385 13.1402 18.435 12.8023 18.2278C12.4644 18.0207 12.2016 17.7477 12.0139 17.4087C11.8215 17.071 11.7254 16.6957 11.7254 16.2828C11.7254 15.87 11.8424 15.4713 12.0764 15.0867ZM35.7493 46.0385C32.8807 46.0385 30.4489 45.0409 28.4537 43.0458C26.4585 41.0506 25.4609 38.6187 25.4609 35.7502C25.4609 32.8816 26.4585 30.4497 28.4537 28.4545C30.4489 26.4594 32.8807 25.4618 35.7493 25.4618C38.6179 25.4618 41.0498 26.4594 43.0449 28.4545C45.0401 30.4497 46.0377 32.8816 46.0377 35.7502C46.0377 38.6187 45.0401 41.0506 43.0449 43.0458C41.0498 45.0409 38.6179 46.0385 35.7493 46.0385ZM0.460938 42.5282V28.9657C0.460938 28.3253 0.677562 27.7895 1.11081 27.3584C1.54402 26.9273 2.08085 26.7118 2.72131 26.7118H16.2837C16.9242 26.7118 17.46 26.9284 17.8911 27.3617C18.3221 27.7949 18.5377 28.3317 18.5377 28.9722V42.5346C18.5377 43.1751 18.3211 43.7108 17.8878 44.1419C17.4546 44.573 16.9178 44.7885 16.2773 44.7885H2.71488C2.07442 44.7885 1.53865 44.5719 1.10756 44.1387C0.676479 43.7054 0.460938 43.1686 0.460938 42.5282ZM35.7486 42.2887C37.5792 42.2887 39.1267 41.6567 40.3911 40.3927C41.6556 39.1287 42.2878 37.5814 42.2878 35.7508C42.2878 33.9203 41.6558 32.3728 40.3918 31.1083C39.1279 29.8439 37.5806 29.2117 35.75 29.2117C33.9194 29.2117 32.3719 29.8437 31.1075 31.1077C29.843 32.3716 29.2108 33.9189 29.2108 35.7495C29.2108 37.58 29.8428 39.1275 31.1068 40.392C32.3708 41.6564 33.918 42.2887 35.7486 42.2887ZM4.21081 41.0387H14.7878V30.4617H4.21081V41.0387ZM16.5954 14.7887H27.4032L21.9993 6.09628L16.5954 14.7887Z" fill="#F7F7F7"/>
</svg>
