<svg width="60" height="60" viewBox="0 0 60 60" fill="none" xmlns="http://www.w3.org/2000/svg">
<mask id="mask0_479_3044" style="mask-type:alpha" maskUnits="userSpaceOnUse" x="0" y="0" width="60" height="60">
<rect width="60" height="60" fill="#D9D9D9"/>
</mask>
<g mask="url(#mask0_479_3044)">
<path d="M28.1249 53.6248V51.1729C22.9166 50.6376 18.532 48.5896 14.9711 45.0287C11.4102 41.4678 9.36213 37.0831 8.82688 31.8748H6.37494C5.84369 31.8748 5.3984 31.6951 5.03906 31.3356C4.67969 30.976 4.5 30.5305 4.5 29.9991C4.5 29.4676 4.67969 29.0223 5.03906 28.6634C5.39844 28.3044 5.84373 28.1249 6.37494 28.1249H8.82688C9.36213 22.9166 11.4102 18.532 14.9711 14.9711C18.532 11.4102 22.9166 9.36212 28.1249 8.82687V6.37494C28.1249 5.84373 28.3047 5.39844 28.6642 5.03906C29.0237 4.67969 29.4692 4.5 30.0007 4.5C30.5322 4.5 30.9774 4.67969 31.3364 5.03906C31.6953 5.39844 31.8748 5.84373 31.8748 6.37494V8.82687C37.0831 9.36212 41.4678 11.4102 45.0287 14.9711C48.5896 18.532 50.6376 22.9166 51.1729 28.1249H53.6248C54.156 28.1249 54.6013 28.3047 54.9607 28.6642C55.3201 29.0237 55.4998 29.4692 55.4998 30.0007C55.4998 30.5322 55.3201 30.9774 54.9607 31.3364C54.6013 31.6953 54.156 31.8748 53.6248 31.8748H51.1729C50.6376 37.0831 48.5896 41.4678 45.0287 45.0287C41.4678 48.5896 37.0831 50.6376 31.8748 51.1729V53.6248C31.8748 54.1561 31.6951 54.6014 31.3356 54.9607C30.976 55.3201 30.5305 55.4998 29.9991 55.4998C29.4676 55.4998 29.0223 55.3201 28.6634 54.9607C28.3044 54.6013 28.1249 54.156 28.1249 53.6248ZM29.9999 47.4999C34.8332 47.4999 38.9582 45.7915 42.3749 42.3749C45.7915 38.9582 47.4999 34.8332 47.4999 29.9999C47.4999 25.1665 45.7915 21.0415 42.3749 17.6249C38.9582 14.2082 34.8332 12.4999 29.9999 12.4999C25.1665 12.4999 21.0415 14.2082 17.6249 17.6249C14.2082 21.0415 12.4999 25.1665 12.4999 29.9999C12.4999 34.8332 14.2082 38.9582 17.6249 42.3749C21.0415 45.7915 25.1665 47.4999 29.9999 47.4999ZM29.9999 38.7498C27.5937 38.7498 25.5338 37.893 23.8203 36.1795C22.1067 34.466 21.2499 32.4061 21.2499 29.9999C21.2499 27.5937 22.1067 25.5338 23.8203 23.8202C25.5338 22.1067 27.5937 21.2499 29.9999 21.2499C32.4061 21.2499 34.466 22.1067 36.1795 23.8202C37.893 25.5338 38.7498 27.5937 38.7498 29.9999C38.7498 32.4061 37.893 34.466 36.1795 36.1795C34.466 37.893 32.4061 38.7498 29.9999 38.7498ZM29.9999 34.9999C31.3749 34.9999 32.552 34.5103 33.5311 33.5311C34.5103 32.552 34.9999 31.3749 34.9999 29.9999C34.9999 28.6249 34.5103 27.4478 33.5311 26.4686C32.552 25.4895 31.3749 24.9999 29.9999 24.9999C28.6249 24.9999 27.4478 25.4895 26.4686 26.4686C25.4895 27.4478 24.9999 28.6249 24.9999 29.9999C24.9999 31.3749 25.4895 32.552 26.4686 33.5311C27.4478 34.5103 28.6249 34.9999 29.9999 34.9999Z" fill="#F7F7F7"/>
</g>
</svg>
